<?xml version="1.0" encoding="UTF-8"?>
<svg xmlns="http://www.w3.org/2000/svg" width="1024" height="1024" viewBox="0 0 1024 1024" fill="none">
  <defs>
    <linearGradient id="bg-andrej-karpathy-svg" x1="96" y1="64" x2="944" y2="976" gradientUnits="userSpaceOnUse">
      <stop offset="0" stop-color="#193153" />
      <stop offset="1" stop-color="#63A7DA" />
    </linearGradient>
    <radialGradient id="glow-andrej-karpathy-svg" cx="0" cy="0" r="1" gradientUnits="userSpaceOnUse" gradientTransform="translate(760 212) rotate(126) scale(512)">
      <stop stop-color="rgba(226, 245, 255, 0.5)" />
      <stop offset="1" stop-color="rgba(226, 245, 255, 0)" />
    </radialGradient>
    <linearGradient id="sheen-andrej-karpathy-svg" x1="180" y1="100" x2="840" y2="920" gradientUnits="userSpaceOnUse">
      <stop stop-color="rgba(255,255,255,0.34)" />
      <stop offset="0.45" stop-color="rgba(255,255,255,0.08)" />
      <stop offset="1" stop-color="rgba(255,255,255,0.02)" />
    </linearGradient>
  </defs>
  <rect width="1024" height="1024" rx="232" fill="url(#bg-andrej-karpathy-svg)" />
  <rect width="1024" height="1024" rx="232" fill="url(#glow-andrej-karpathy-svg)" />
  <circle cx="770" cy="214" r="178" fill="rgba(255, 255, 255, 0.08)" />
  <circle cx="256" cy="826" r="154" fill="rgba(226, 245, 255, 0.12)" />
  <rect x="96" y="96" width="832" height="832" rx="196" fill="url(#sheen-andrej-karpathy-svg)" stroke="rgba(255, 255, 255, 0.12)" stroke-width="2" />
  <circle cx="512" cy="438" r="224" fill="rgba(255, 255, 255, 0.12)" stroke="rgba(255, 255, 255, 0.14)" stroke-width="2" />
  <path d="M154 766C220 702 314 662 408 662H616C738 662 834 742 870 862" stroke="rgba(255, 255, 255, 0.12)" stroke-width="28" stroke-linecap="round" />
  <rect x="650" y="676" width="206" height="206" rx="76" fill="rgba(255, 255, 255, 0.14)" stroke="rgba(255, 255, 255, 0.16)" stroke-width="2" />
  <circle cx="820" cy="164" r="32" fill="rgba(226, 245, 255, 0.32)" />
  <circle cx="206" cy="200" r="18" fill="rgba(255, 255, 255, 0.18)" />
  <g transform="translate(364.00 290.00) scale(12.3333)" fill="none" stroke="#FFFFFF" stroke-width="2.2" stroke-linecap="round" stroke-linejoin="round" vector-effect="non-scaling-stroke" opacity="1"><path d="M20 16V7a2 2 0 0 0-2-2H6a2 2 0 0 0-2 2v9m16 0H4m16 0 1.28 2.55a1 1 0 0 1-.9 1.45H3.62a1 1 0 0 1-.9-1.45L4 16" key="tarvll" /></g>
  <g transform="translate(695.00 720.00) scale(4.8333)" fill="none" stroke="#E2F5FF" stroke-width="2.2" stroke-linecap="round" stroke-linejoin="round" vector-effect="non-scaling-stroke" opacity="0.98"><path d="m13.11 7.664 1.78 2.672" key="go2gg9" /><path d="m14.162 12.788-3.324 1.424" key="11x848" /><path d="m20 4-6.06 1.515" key="1wxxh7" /><path d="M3 3v16a2 2 0 0 0 2 2h16" key="c24i48" /><circle cx="12" cy="6" r="2" key="1jj5th" /><circle cx="16" cy="12" r="2" key="4ma0v8" /><circle cx="9" cy="15" r="2" key="lf2ghp" /></g>
</svg>