<?xml version="1.0" encoding="UTF-8"?>
<svg xmlns="http://www.w3.org/2000/svg" width="1024" height="1024" viewBox="0 0 1024 1024" fill="none">
  <defs>
    <linearGradient id="bg-charlie-munger-svg" x1="96" y1="64" x2="944" y2="976" gradientUnits="userSpaceOnUse">
      <stop offset="0" stop-color="#3B2A22" />
      <stop offset="1" stop-color="#A07A56" />
    </linearGradient>
    <radialGradient id="glow-charlie-munger-svg" cx="0" cy="0" r="1" gradientUnits="userSpaceOnUse" gradientTransform="translate(760 212) rotate(126) scale(512)">
      <stop stop-color="rgba(238, 220, 170, 0.5)" />
      <stop offset="1" stop-color="rgba(238, 220, 170, 0)" />
    </radialGradient>
    <linearGradient id="sheen-charlie-munger-svg" x1="180" y1="100" x2="840" y2="920" gradientUnits="userSpaceOnUse">
      <stop stop-color="rgba(255,255,255,0.34)" />
      <stop offset="0.45" stop-color="rgba(255,255,255,0.08)" />
      <stop offset="1" stop-color="rgba(255,255,255,0.02)" />
    </linearGradient>
  </defs>
  <rect width="1024" height="1024" rx="232" fill="url(#bg-charlie-munger-svg)" />
  <rect width="1024" height="1024" rx="232" fill="url(#glow-charlie-munger-svg)" />
  <circle cx="770" cy="214" r="178" fill="rgba(255, 255, 255, 0.08)" />
  <circle cx="256" cy="826" r="154" fill="rgba(238, 220, 170, 0.12)" />
  <rect x="96" y="96" width="832" height="832" rx="196" fill="url(#sheen-charlie-munger-svg)" stroke="rgba(255, 255, 255, 0.12)" stroke-width="2" />
  <circle cx="512" cy="438" r="224" fill="rgba(255, 255, 255, 0.12)" stroke="rgba(255, 255, 255, 0.14)" stroke-width="2" />
  <path d="M154 766C220 702 314 662 408 662H616C738 662 834 742 870 862" stroke="rgba(255, 255, 255, 0.12)" stroke-width="28" stroke-linecap="round" />
  <rect x="650" y="676" width="206" height="206" rx="76" fill="rgba(255, 255, 255, 0.14)" stroke="rgba(255, 255, 255, 0.16)" stroke-width="2" />
  <circle cx="820" cy="164" r="32" fill="rgba(238, 220, 170, 0.32)" />
  <circle cx="206" cy="200" r="18" fill="rgba(255, 255, 255, 0.18)" />
  <g transform="translate(364.00 290.00) scale(12.3333)" fill="none" stroke="#FFFFFF" stroke-width="2.2" stroke-linecap="round" stroke-linejoin="round" vector-effect="non-scaling-stroke" opacity="1"><circle cx="6" cy="15" r="4" key="vux9w4" /><circle cx="18" cy="15" r="4" key="18o8ve" /><path d="M14 15a2 2 0 0 0-2-2 2 2 0 0 0-2 2" key="1ag4bs" /><path d="M2.5 13 5 7c.7-1.3 1.4-2 3-2" key="1hm1gs" /><path d="M21.5 13 19 7c-.7-1.3-1.5-2-3-2" key="1r31ai" /></g>
  <g transform="translate(695.00 720.00) scale(4.8333)" fill="none" stroke="#EEDCAA" stroke-width="2.2" stroke-linecap="round" stroke-linejoin="round" vector-effect="non-scaling-stroke" opacity="0.98"><circle cx="8" cy="8" r="6" key="3yglwk" /><path d="M18.09 10.37A6 6 0 1 1 10.34 18" key="t5s6rm" /><path d="M7 6h1v4" key="1obek4" /><path d="m16.71 13.88.7.71-2.82 2.82" key="1rbuyh" /></g>
</svg>