<?xml version="1.0" encoding="UTF-8"?>
<svg xmlns="http://www.w3.org/2000/svg" width="1024" height="1024" viewBox="0 0 1024 1024" fill="none">
  <defs>
    <linearGradient id="bg-council-writing-editor-lu-yan-svg" x1="96" y1="64" x2="944" y2="976" gradientUnits="userSpaceOnUse">
      <stop offset="0" stop-color="#5A1F5C" />
      <stop offset="1" stop-color="#E0B0E2" />
    </linearGradient>
    <radialGradient id="glow-council-writing-editor-lu-yan-svg" cx="0" cy="0" r="1" gradientUnits="userSpaceOnUse" gradientTransform="translate(760 212) rotate(126) scale(512)">
      <stop stop-color="rgba(255, 255, 255, 0.5)" />
      <stop offset="1" stop-color="rgba(255, 255, 255, 0)" />
    </radialGradient>
    <linearGradient id="sheen-council-writing-editor-lu-yan-svg" x1="180" y1="100" x2="840" y2="920" gradientUnits="userSpaceOnUse">
      <stop stop-color="rgba(255,255,255,0.34)" />
      <stop offset="0.45" stop-color="rgba(255,255,255,0.08)" />
      <stop offset="1" stop-color="rgba(255,255,255,0.02)" />
    </linearGradient>
  </defs>
  <rect width="1024" height="1024" rx="232" fill="url(#bg-council-writing-editor-lu-yan-svg)" />
  <rect width="1024" height="1024" rx="232" fill="url(#glow-council-writing-editor-lu-yan-svg)" />
  <circle cx="770" cy="214" r="178" fill="rgba(255, 255, 255, 0.08)" />
  <circle cx="256" cy="826" r="154" fill="rgba(255, 255, 255, 0.12)" />
  <rect x="96" y="96" width="832" height="832" rx="196" fill="url(#sheen-council-writing-editor-lu-yan-svg)" stroke="rgba(255, 255, 255, 0.12)" stroke-width="2" />
  <circle cx="512" cy="512" r="248" fill="rgba(255, 255, 255, 0.12)" stroke="rgba(255, 255, 255, 0.14)" stroke-width="2" />
  <circle cx="820" cy="164" r="32" fill="rgba(255, 255, 255, 0.32)" />
  <circle cx="206" cy="200" r="18" fill="rgba(255, 255, 255, 0.18)" />
  <g transform="translate(350 320) scale(13.5)" fill="none" stroke="#FFFFFF" stroke-width="2.2" stroke-linecap="round" stroke-linejoin="round" vector-effect="non-scaling-stroke" opacity="1">
    <path d="M20.24 12.24a6 6 0 0 0-8.49-8.49L5 10.5V19h8.5z" />
    <path d="M16 8 2 22" />
    <path d="M17.5 15H9" />
  </g>
</svg>
