<?xml version="1.0" encoding="UTF-8"?>
<svg xmlns="http://www.w3.org/2000/svg" width="1024" height="1024" viewBox="0 0 1024 1024" fill="none">
  <defs>
    <linearGradient id="bg-donald-trump-svg" x1="96" y1="64" x2="944" y2="976" gradientUnits="userSpaceOnUse">
      <stop offset="0" stop-color="#20426E" />
      <stop offset="1" stop-color="#C44646" />
    </linearGradient>
    <radialGradient id="glow-donald-trump-svg" cx="0" cy="0" r="1" gradientUnits="userSpaceOnUse" gradientTransform="translate(760 212) rotate(126) scale(512)">
      <stop stop-color="rgba(245, 215, 168, 0.5)" />
      <stop offset="1" stop-color="rgba(245, 215, 168, 0)" />
    </radialGradient>
    <linearGradient id="sheen-donald-trump-svg" x1="180" y1="100" x2="840" y2="920" gradientUnits="userSpaceOnUse">
      <stop stop-color="rgba(255,255,255,0.34)" />
      <stop offset="0.45" stop-color="rgba(255,255,255,0.08)" />
      <stop offset="1" stop-color="rgba(255,255,255,0.02)" />
    </linearGradient>
  </defs>
  <rect width="1024" height="1024" rx="232" fill="url(#bg-donald-trump-svg)" />
  <rect width="1024" height="1024" rx="232" fill="url(#glow-donald-trump-svg)" />
  <circle cx="770" cy="214" r="178" fill="rgba(255, 255, 255, 0.08)" />
  <circle cx="256" cy="826" r="154" fill="rgba(245, 215, 168, 0.12)" />
  <rect x="96" y="96" width="832" height="832" rx="196" fill="url(#sheen-donald-trump-svg)" stroke="rgba(255, 255, 255, 0.12)" stroke-width="2" />
  <circle cx="512" cy="438" r="224" fill="rgba(255, 255, 255, 0.12)" stroke="rgba(255, 255, 255, 0.14)" stroke-width="2" />
  <path d="M154 766C220 702 314 662 408 662H616C738 662 834 742 870 862" stroke="rgba(255, 255, 255, 0.12)" stroke-width="28" stroke-linecap="round" />
  <rect x="650" y="676" width="206" height="206" rx="76" fill="rgba(255, 255, 255, 0.14)" stroke="rgba(255, 255, 255, 0.16)" stroke-width="2" />
  <circle cx="820" cy="164" r="32" fill="rgba(245, 215, 168, 0.32)" />
  <circle cx="206" cy="200" r="18" fill="rgba(255, 255, 255, 0.18)" />
  <g transform="translate(364.00 290.00) scale(12.3333)" fill="none" stroke="#FFFFFF" stroke-width="2.2" stroke-linecap="round" stroke-linejoin="round" vector-effect="non-scaling-stroke" opacity="1"><line x1="3" x2="21" y1="22" y2="22" key="j8o0r" /><line x1="6" x2="6" y1="18" y2="11" key="10tf0k" /><line x1="10" x2="10" y1="18" y2="11" key="54lgf6" /><line x1="14" x2="14" y1="18" y2="11" key="380y" /><line x1="18" x2="18" y1="18" y2="11" key="1kevvc" /><polygon points="12 2 20 7 4 7" key="jkujk7" /></g>
  <g transform="translate(695.00 720.00) scale(4.8333)" fill="none" stroke="#F5D7A8" stroke-width="2.2" stroke-linecap="round" stroke-linejoin="round" vector-effect="non-scaling-stroke" opacity="0.98"><path d="m11 7.601-5.994 8.19a1 1 0 0 0 .1 1.298l.817.818a1 1 0 0 0 1.314.087L15.09 12" key="80a601" /><path d="M16.5 21.174C15.5 20.5 14.372 20 13 20c-2.058 0-3.928 2.356-6 2-2.072-.356-2.775-3.369-1.5-4.5" key="j0ngtp" /><circle cx="16" cy="7" r="5" key="d08jfb" /></g>
</svg>