<?xml version="1.0" encoding="UTF-8"?>
<svg xmlns="http://www.w3.org/2000/svg" width="1024" height="1024" viewBox="0 0 1024 1024" fill="none">
  <defs>
    <linearGradient id="bg-elon-musk-svg" x1="96" y1="64" x2="944" y2="976" gradientUnits="userSpaceOnUse">
      <stop offset="0" stop-color="#182334" />
      <stop offset="1" stop-color="#456B99" />
    </linearGradient>
    <radialGradient id="glow-elon-musk-svg" cx="0" cy="0" r="1" gradientUnits="userSpaceOnUse" gradientTransform="translate(760 212) rotate(126) scale(512)">
      <stop stop-color="rgba(234, 139, 58, 0.5)" />
      <stop offset="1" stop-color="rgba(234, 139, 58, 0)" />
    </radialGradient>
    <linearGradient id="sheen-elon-musk-svg" x1="180" y1="100" x2="840" y2="920" gradientUnits="userSpaceOnUse">
      <stop stop-color="rgba(255,255,255,0.34)" />
      <stop offset="0.45" stop-color="rgba(255,255,255,0.08)" />
      <stop offset="1" stop-color="rgba(255,255,255,0.02)" />
    </linearGradient>
  </defs>
  <rect width="1024" height="1024" rx="232" fill="url(#bg-elon-musk-svg)" />
  <rect width="1024" height="1024" rx="232" fill="url(#glow-elon-musk-svg)" />
  <circle cx="770" cy="214" r="178" fill="rgba(255, 255, 255, 0.08)" />
  <circle cx="256" cy="826" r="154" fill="rgba(234, 139, 58, 0.12)" />
  <rect x="96" y="96" width="832" height="832" rx="196" fill="url(#sheen-elon-musk-svg)" stroke="rgba(255, 255, 255, 0.12)" stroke-width="2" />
  <circle cx="512" cy="438" r="224" fill="rgba(255, 255, 255, 0.12)" stroke="rgba(255, 255, 255, 0.14)" stroke-width="2" />
  <path d="M154 766C220 702 314 662 408 662H616C738 662 834 742 870 862" stroke="rgba(255, 255, 255, 0.12)" stroke-width="28" stroke-linecap="round" />
  <rect x="650" y="676" width="206" height="206" rx="76" fill="rgba(255, 255, 255, 0.14)" stroke="rgba(255, 255, 255, 0.16)" stroke-width="2" />
  <circle cx="820" cy="164" r="32" fill="rgba(234, 139, 58, 0.32)" />
  <circle cx="206" cy="200" r="18" fill="rgba(255, 255, 255, 0.18)" />
  <g transform="translate(364.00 290.00) scale(12.3333)" fill="none" stroke="#FFFFFF" stroke-width="2.2" stroke-linecap="round" stroke-linejoin="round" vector-effect="non-scaling-stroke" opacity="1"><path d="M4.5 16.5c-1.5 1.26-2 5-2 5s3.74-.5 5-2c.71-.84.7-2.13-.09-2.91a2.18 2.18 0 0 0-2.91-.09z" key="m3kijz" /><path d="m12 15-3-3a22 22 0 0 1 2-3.95A12.88 12.88 0 0 1 22 2c0 2.72-.78 7.5-6 11a22.35 22.35 0 0 1-4 2z" key="1fmvmk" /><path d="M9 12H4s.55-3.03 2-4c1.62-1.08 5 0 5 0" key="1f8sc4" /><path d="M12 15v5s3.03-.55 4-2c1.08-1.62 0-5 0-5" key="qeys4" /></g>
  <g transform="translate(695.00 720.00) scale(4.8333)" fill="none" stroke="#EA8B3A" stroke-width="2.2" stroke-linecap="round" stroke-linejoin="round" vector-effect="non-scaling-stroke" opacity="0.98"><path d="M18 12h2" key="quuxs7" /><path d="M18 16h2" key="zsn3lv" /><path d="M18 20h2" key="9x5y9y" /><path d="M18 4h2" key="1luxfb" /><path d="M18 8h2" key="nxqzg" /><path d="M4 12h2" key="1ltxp0" /><path d="M4 16h2" key="8a5zha" /><path d="M4 20h2" key="27dk57" /><path d="M4 4h2" key="10groj" /><path d="M4 8h2" key="18vq6w" /><path d="M8 2a2 2 0 0 0-2 2v16a2 2 0 0 0 2 2h8a2 2 0 0 0 2-2V4a2 2 0 0 0-2-2h-1.5c-.276 0-.494.227-.562.495a2 2 0 0 1-3.876 0C9.994 2.227 9.776 2 9.5 2z" key="1681fp" /></g>
</svg>