<?xml version="1.0" encoding="UTF-8"?>
<svg xmlns="http://www.w3.org/2000/svg" width="1024" height="1024" viewBox="0 0 1024 1024" fill="none">
  <defs>
    <linearGradient id="bg-ilya-sutskever-svg" x1="96" y1="64" x2="944" y2="976" gradientUnits="userSpaceOnUse">
      <stop offset="0" stop-color="#11243A" />
      <stop offset="1" stop-color="#4F7D8D" />
    </linearGradient>
    <radialGradient id="glow-ilya-sutskever-svg" cx="0" cy="0" r="1" gradientUnits="userSpaceOnUse" gradientTransform="translate(760 212) rotate(126) scale(512)">
      <stop stop-color="rgba(234, 215, 163, 0.5)" />
      <stop offset="1" stop-color="rgba(234, 215, 163, 0)" />
    </radialGradient>
    <linearGradient id="sheen-ilya-sutskever-svg" x1="180" y1="100" x2="840" y2="920" gradientUnits="userSpaceOnUse">
      <stop stop-color="rgba(255,255,255,0.34)" />
      <stop offset="0.45" stop-color="rgba(255,255,255,0.08)" />
      <stop offset="1" stop-color="rgba(255,255,255,0.02)" />
    </linearGradient>
  </defs>
  <rect width="1024" height="1024" rx="232" fill="url(#bg-ilya-sutskever-svg)" />
  <rect width="1024" height="1024" rx="232" fill="url(#glow-ilya-sutskever-svg)" />
  <circle cx="770" cy="214" r="178" fill="rgba(255, 255, 255, 0.08)" />
  <circle cx="256" cy="826" r="154" fill="rgba(234, 215, 163, 0.12)" />
  <rect x="96" y="96" width="832" height="832" rx="196" fill="url(#sheen-ilya-sutskever-svg)" stroke="rgba(255, 255, 255, 0.12)" stroke-width="2" />
  <circle cx="512" cy="438" r="224" fill="rgba(255, 255, 255, 0.12)" stroke="rgba(255, 255, 255, 0.14)" stroke-width="2" />
  <path d="M154 766C220 702 314 662 408 662H616C738 662 834 742 870 862" stroke="rgba(255, 255, 255, 0.12)" stroke-width="28" stroke-linecap="round" />
  <rect x="650" y="676" width="206" height="206" rx="76" fill="rgba(255, 255, 255, 0.14)" stroke="rgba(255, 255, 255, 0.16)" stroke-width="2" />
  <circle cx="820" cy="164" r="32" fill="rgba(234, 215, 163, 0.32)" />
  <circle cx="206" cy="200" r="18" fill="rgba(255, 255, 255, 0.18)" />
  <g transform="translate(364.00 290.00) scale(12.3333)" fill="none" stroke="#FFFFFF" stroke-width="2.2" stroke-linecap="round" stroke-linejoin="round" vector-effect="non-scaling-stroke" opacity="1"><path d="M12 5a3 3 0 1 0-5.997.125 4 4 0 0 0-2.526 5.77 4 4 0 0 0 .556 6.588A4 4 0 1 0 12 18Z" key="l5xja" /><path d="M9 13a4.5 4.5 0 0 0 3-4" key="10igwf" /><path d="M6.003 5.125A3 3 0 0 0 6.401 6.5" key="105sqy" /><path d="M3.477 10.896a4 4 0 0 1 .585-.396" key="ql3yin" /><path d="M6 18a4 4 0 0 1-1.967-.516" key="2e4loj" /><path d="M12 13h4" key="1ku699" /><path d="M12 18h6a2 2 0 0 1 2 2v1" key="105ag5" /><path d="M12 8h8" key="1lhi5i" /><path d="M16 8V5a2 2 0 0 1 2-2" key="u6izg6" /><circle cx="16" cy="13" r=".5" key="ry7gng" /><circle cx="18" cy="3" r=".5" key="1aiba7" /><circle cx="20" cy="21" r=".5" key="yhc1fs" /><circle cx="20" cy="8" r=".5" key="1e43v0" /></g>
  <g transform="translate(695.00 720.00) scale(4.8333)" fill="none" stroke="#EAD7A3" stroke-width="2.2" stroke-linecap="round" stroke-linejoin="round" vector-effect="non-scaling-stroke" opacity="0.98"><path d="M13.4 2H6a2 2 0 0 0-2 2v16a2 2 0 0 0 2 2h12a2 2 0 0 0 2-2v-7.4" key="re6nr2" /><path d="M2 6h4" key="aawbzj" /><path d="M2 10h4" key="l0bgd4" /><path d="M2 14h4" key="1gsvsf" /><path d="M2 18h4" key="1bu2t1" /><path d="M21.378 5.626a1 1 0 1 0-3.004-3.004l-5.01 5.012a2 2 0 0 0-.506.854l-.837 2.87a.5.5 0 0 0 .62.62l2.87-.837a2 2 0 0 0 .854-.506z" key="pqwjuv" /></g>
</svg>