<?xml version="1.0" encoding="UTF-8"?>
<svg xmlns="http://www.w3.org/2000/svg" width="1024" height="1024" viewBox="0 0 1024 1024" fill="none">
  <defs>
    <linearGradient id="bg-jian-ning-relationship-expert-svg" x1="96" y1="64" x2="944" y2="976" gradientUnits="userSpaceOnUse">
      <stop offset="0" stop-color="#7C5B6D" />
      <stop offset="1" stop-color="#E3C0BC" />
    </linearGradient>
    <radialGradient id="glow-jian-ning-relationship-expert-svg" cx="0" cy="0" r="1" gradientUnits="userSpaceOnUse" gradientTransform="translate(760 212) rotate(126) scale(512)">
      <stop stop-color="rgba(255, 231, 168, 0.5)" />
      <stop offset="1" stop-color="rgba(255, 231, 168, 0)" />
    </radialGradient>
    <linearGradient id="sheen-jian-ning-relationship-expert-svg" x1="180" y1="100" x2="840" y2="920" gradientUnits="userSpaceOnUse">
      <stop stop-color="rgba(255,255,255,0.34)" />
      <stop offset="0.45" stop-color="rgba(255,255,255,0.08)" />
      <stop offset="1" stop-color="rgba(255,255,255,0.02)" />
    </linearGradient>
  </defs>
  <rect width="1024" height="1024" rx="232" fill="url(#bg-jian-ning-relationship-expert-svg)" />
  <rect width="1024" height="1024" rx="232" fill="url(#glow-jian-ning-relationship-expert-svg)" />
  <circle cx="770" cy="214" r="178" fill="rgba(255, 255, 255, 0.08)" />
  <circle cx="256" cy="826" r="154" fill="rgba(255, 231, 168, 0.12)" />
  <rect x="96" y="96" width="832" height="832" rx="196" fill="url(#sheen-jian-ning-relationship-expert-svg)" stroke="rgba(255, 255, 255, 0.12)" stroke-width="2" />
  <circle cx="512" cy="438" r="224" fill="rgba(255, 255, 255, 0.12)" stroke="rgba(255, 255, 255, 0.14)" stroke-width="2" />
  <path d="M154 766C220 702 314 662 408 662H616C738 662 834 742 870 862" stroke="rgba(255, 255, 255, 0.12)" stroke-width="28" stroke-linecap="round" />
  <rect x="650" y="676" width="206" height="206" rx="76" fill="rgba(255, 255, 255, 0.14)" stroke="rgba(255, 255, 255, 0.16)" stroke-width="2" />
  <circle cx="820" cy="164" r="32" fill="rgba(255, 231, 168, 0.32)" />
  <circle cx="206" cy="200" r="18" fill="rgba(255, 255, 255, 0.18)" />
  <g transform="translate(364.00 290.00) scale(12.3333)" fill="none" stroke="#FFFFFF" stroke-width="2.2" stroke-linecap="round" stroke-linejoin="round" vector-effect="non-scaling-stroke" opacity="1"><path d="m14 5-3 3 2 7 8-8-7-2Z" key="1b0msb" /><path d="m14 5-3 3-3-3 3-3 3 3Z" key="1uemms" /><path d="M9.5 6.5 4 12l3 6" key="1bx08v" /><path d="M3 22v-2c0-1.1.9-2 2-2h4a2 2 0 0 1 2 2v2H3Z" key="wap775" /></g>
  <g transform="translate(695.00 720.00) scale(4.8333)" fill="none" stroke="#FFE7A8" stroke-width="2.2" stroke-linecap="round" stroke-linejoin="round" vector-effect="non-scaling-stroke" opacity="0.98"><path d="M7.9 20A9 9 0 1 0 4 16.1L2 22Z" key="vv11sd" /><path d="M15.8 9.2a2.5 2.5 0 0 0-3.5 0l-.3.4-.35-.3a2.42 2.42 0 1 0-3.2 3.6l3.6 3.5 3.6-3.5c1.2-1.2 1.1-2.7.2-3.7" key="43lnbm" /></g>
</svg>