<?xml version="1.0" encoding="UTF-8"?>
<svg xmlns="http://www.w3.org/2000/svg" width="1024" height="1024" viewBox="0 0 1024 1024" fill="none">
  <defs>
    <linearGradient id="bg-lin-mian-sleep-support-svg" x1="96" y1="64" x2="944" y2="976" gradientUnits="userSpaceOnUse">
      <stop offset="0" stop-color="#4E4A78" />
      <stop offset="1" stop-color="#DCCDE8" />
    </linearGradient>
    <radialGradient id="glow-lin-mian-sleep-support-svg" cx="0" cy="0" r="1" gradientUnits="userSpaceOnUse" gradientTransform="translate(760 212) rotate(126) scale(512)">
      <stop stop-color="rgba(255, 240, 200, 0.48)" />
      <stop offset="1" stop-color="rgba(255, 240, 200, 0)" />
    </radialGradient>
    <linearGradient id="sheen-lin-mian-sleep-support-svg" x1="180" y1="100" x2="840" y2="920" gradientUnits="userSpaceOnUse">
      <stop stop-color="rgba(255,255,255,0.34)" />
      <stop offset="0.45" stop-color="rgba(255,255,255,0.08)" />
      <stop offset="1" stop-color="rgba(255,255,255,0.02)" />
    </linearGradient>
  </defs>
  <rect width="1024" height="1024" rx="232" fill="url(#bg-lin-mian-sleep-support-svg)" />
  <rect width="1024" height="1024" rx="232" fill="url(#glow-lin-mian-sleep-support-svg)" />
  <circle cx="770" cy="214" r="178" fill="rgba(255, 255, 255, 0.08)" />
  <circle cx="256" cy="826" r="154" fill="rgba(255, 240, 200, 0.14)" />
  <rect x="96" y="96" width="832" height="832" rx="196" fill="url(#sheen-lin-mian-sleep-support-svg)" stroke="rgba(255, 255, 255, 0.12)" stroke-width="2" />
  <circle cx="512" cy="438" r="224" fill="rgba(255, 255, 255, 0.12)" stroke="rgba(255, 255, 255, 0.14)" stroke-width="2" />
  <path d="M154 766C220 702 314 662 408 662H616C738 662 834 742 870 862" stroke="rgba(255, 255, 255, 0.12)" stroke-width="28" stroke-linecap="round" />
  <rect x="650" y="676" width="206" height="206" rx="76" fill="rgba(255, 255, 255, 0.14)" stroke="rgba(255, 255, 255, 0.16)" stroke-width="2" />
  <circle cx="820" cy="164" r="32" fill="rgba(255, 240, 200, 0.3)" />
  <circle cx="206" cy="200" r="18" fill="rgba(255, 255, 255, 0.18)" />
  <g transform="translate(362.00 286.00) scale(12.5)" fill="none" stroke="#FFFFFF" stroke-width="2.2" stroke-linecap="round" stroke-linejoin="round" vector-effect="non-scaling-stroke" opacity="1">
    <path d="M18 13a6 6 0 1 1-6-10c-.5 6 2.5 10 8 10h-2Z" />
    <path d="M8 18c.9 1 2.2 1.6 3.7 1.6 2.7 0 4.8-2.1 4.8-4.8" />
    <path d="M7 15h1" />
    <path d="M5.5 11.5 7 13" />
    <path d="M10.5 8.5 12 10" />
  </g>
  <g transform="translate(699.00 719.00) scale(4.78)" fill="none" stroke="#FFF0C8" stroke-width="2.2" stroke-linecap="round" stroke-linejoin="round" vector-effect="non-scaling-stroke" opacity="0.98">
    <path d="M5 12h14" />
    <path d="M7 8h10a2 2 0 0 1 2 2v5a2 2 0 0 1-2 2H7a2 2 0 0 1-2-2v-5a2 2 0 0 1 2-2Z" />
    <path d="M9 8V6a3 3 0 0 1 6 0v2" />
  </g>
</svg>
