<?xml version="1.0" encoding="UTF-8"?>
<svg xmlns="http://www.w3.org/2000/svg" width="1024" height="1024" viewBox="0 0 1024 1024" fill="none">
  <defs>
    <linearGradient id="bg-presales-solution-advisor-svg" x1="96" y1="64" x2="944" y2="976" gradientUnits="userSpaceOnUse">
      <stop offset="0" stop-color="#0F5C5C" />
      <stop offset="1" stop-color="#B8E0D8" />
    </linearGradient>
    <radialGradient id="glow-presales-solution-advisor-svg" cx="0" cy="0" r="1" gradientUnits="userSpaceOnUse" gradientTransform="translate(760 212) rotate(126) scale(512)">
      <stop stop-color="rgba(255, 255, 255, 0.5)" />
      <stop offset="1" stop-color="rgba(255, 255, 255, 0)" />
    </radialGradient>
    <linearGradient id="sheen-presales-solution-advisor-svg" x1="180" y1="100" x2="840" y2="920" gradientUnits="userSpaceOnUse">
      <stop stop-color="rgba(255,255,255,0.34)" />
      <stop offset="0.45" stop-color="rgba(255,255,255,0.08)" />
      <stop offset="1" stop-color="rgba(255,255,255,0.02)" />
    </linearGradient>
  </defs>
  <rect width="1024" height="1024" rx="232" fill="url(#bg-presales-solution-advisor-svg)" />
  <rect width="1024" height="1024" rx="232" fill="url(#glow-presales-solution-advisor-svg)" />
  <circle cx="770" cy="214" r="178" fill="rgba(255, 255, 255, 0.08)" />
  <circle cx="256" cy="826" r="154" fill="rgba(255, 255, 255, 0.12)" />
  <rect x="96" y="96" width="832" height="832" rx="196" fill="url(#sheen-presales-solution-advisor-svg)" stroke="rgba(255, 255, 255, 0.12)" stroke-width="2" />
  <circle cx="512" cy="512" r="248" fill="rgba(255, 255, 255, 0.12)" stroke="rgba(255, 255, 255, 0.14)" stroke-width="2" />
  <circle cx="820" cy="164" r="32" fill="rgba(255, 255, 255, 0.32)" />
  <circle cx="206" cy="200" r="18" fill="rgba(255, 255, 255, 0.18)" />
  <g transform="translate(350 320) scale(13.5)" fill="none" stroke="#FFFFFF" stroke-width="2.2" stroke-linecap="round" stroke-linejoin="round" vector-effect="non-scaling-stroke" opacity="1">
    <path d="M9 18h6" />
    <path d="M10 22h4" />
    <path d="M12 2a7 7 0 0 0-4 12c.5.5 1 1.5 1 2h6c0-.5.5-1.5 1-2a7 7 0 0 0-4-12z" />
  </g>
</svg>
