<?xml version="1.0" encoding="UTF-8"?>
<svg xmlns="http://www.w3.org/2000/svg" width="1024" height="1024" viewBox="0 0 1024 1024" fill="none">
  <defs>
    <linearGradient id="bg-richard-feynman-svg" x1="96" y1="64" x2="944" y2="976" gradientUnits="userSpaceOnUse">
      <stop offset="0" stop-color="#6D3D28" />
      <stop offset="1" stop-color="#D98A60" />
    </linearGradient>
    <radialGradient id="glow-richard-feynman-svg" cx="0" cy="0" r="1" gradientUnits="userSpaceOnUse" gradientTransform="translate(760 212) rotate(126) scale(512)">
      <stop stop-color="rgba(248, 227, 163, 0.5)" />
      <stop offset="1" stop-color="rgba(248, 227, 163, 0)" />
    </radialGradient>
    <linearGradient id="sheen-richard-feynman-svg" x1="180" y1="100" x2="840" y2="920" gradientUnits="userSpaceOnUse">
      <stop stop-color="rgba(255,255,255,0.34)" />
      <stop offset="0.45" stop-color="rgba(255,255,255,0.08)" />
      <stop offset="1" stop-color="rgba(255,255,255,0.02)" />
    </linearGradient>
  </defs>
  <rect width="1024" height="1024" rx="232" fill="url(#bg-richard-feynman-svg)" />
  <rect width="1024" height="1024" rx="232" fill="url(#glow-richard-feynman-svg)" />
  <circle cx="770" cy="214" r="178" fill="rgba(255, 255, 255, 0.08)" />
  <circle cx="256" cy="826" r="154" fill="rgba(248, 227, 163, 0.12)" />
  <rect x="96" y="96" width="832" height="832" rx="196" fill="url(#sheen-richard-feynman-svg)" stroke="rgba(255, 255, 255, 0.12)" stroke-width="2" />
  <circle cx="512" cy="438" r="224" fill="rgba(255, 255, 255, 0.12)" stroke="rgba(255, 255, 255, 0.14)" stroke-width="2" />
  <path d="M154 766C220 702 314 662 408 662H616C738 662 834 742 870 862" stroke="rgba(255, 255, 255, 0.12)" stroke-width="28" stroke-linecap="round" />
  <rect x="650" y="676" width="206" height="206" rx="76" fill="rgba(255, 255, 255, 0.14)" stroke="rgba(255, 255, 255, 0.16)" stroke-width="2" />
  <circle cx="820" cy="164" r="32" fill="rgba(248, 227, 163, 0.32)" />
  <circle cx="206" cy="200" r="18" fill="rgba(255, 255, 255, 0.18)" />
  <g transform="translate(364.00 290.00) scale(12.3333)" fill="none" stroke="#FFFFFF" stroke-width="2.2" stroke-linecap="round" stroke-linejoin="round" vector-effect="non-scaling-stroke" opacity="1"><circle cx="12" cy="12" r="1" key="41hilf" /><path d="M20.2 20.2c2.04-2.03.02-7.36-4.5-11.9-4.54-4.52-9.87-6.54-11.9-4.5-2.04 2.03-.02 7.36 4.5 11.9 4.54 4.52 9.87 6.54 11.9 4.5Z" key="1l2ple" /><path d="M15.7 15.7c4.52-4.54 6.54-9.87 4.5-11.9-2.03-2.04-7.36-.02-11.9 4.5-4.52 4.54-6.54 9.87-4.5 11.9 2.03 2.04 7.36.02 11.9-4.5Z" key="1wam0m" /></g>
  <g transform="translate(695.00 720.00) scale(4.8333)" fill="none" stroke="#F8E3A3" stroke-width="2.2" stroke-linecap="round" stroke-linejoin="round" vector-effect="non-scaling-stroke" opacity="0.98"><path d="m2 2 8 8" key="1v6059" /><path d="m22 2-8 8" key="173r8a" /><ellipse cx="12" cy="9" rx="10" ry="5" key="liohsx" /><path d="M7 13.4v7.9" key="1yi6u9" /><path d="M12 14v8" key="1tn2tj" /><path d="M17 13.4v7.9" key="eqz2v3" /><path d="M2 9v8a10 5 0 0 0 20 0V9" key="1750ul" /></g>
</svg>