<?xml version="1.0" encoding="UTF-8"?>
<svg xmlns="http://www.w3.org/2000/svg" width="1024" height="1024" viewBox="0 0 1024 1024" fill="none">
  <defs>
    <linearGradient id="bg-wedding-dress-expert-shaning-svg" x1="92" y1="64" x2="936" y2="976" gradientUnits="userSpaceOnUse">
      <stop offset="0" stop-color="#A86D82" />
      <stop offset="0.52" stop-color="#F1D6CF" />
      <stop offset="1" stop-color="#FFF7EA" />
    </linearGradient>
    <radialGradient id="glow-wedding-dress-expert-shaning-svg" cx="0" cy="0" r="1" gradientUnits="userSpaceOnUse" gradientTransform="translate(746 214) rotate(126) scale(520)">
      <stop stop-color="rgba(244, 214, 148, 0.52)" />
      <stop offset="1" stop-color="rgba(244, 214, 148, 0)" />
    </radialGradient>
    <linearGradient id="sheen-wedding-dress-expert-shaning-svg" x1="170" y1="102" x2="846" y2="918" gradientUnits="userSpaceOnUse">
      <stop stop-color="rgba(255,255,255,0.42)" />
      <stop offset="0.46" stop-color="rgba(255,255,255,0.1)" />
      <stop offset="1" stop-color="rgba(255,255,255,0.03)" />
    </linearGradient>
    <linearGradient id="dress-wedding-dress-expert-shaning-svg" x1="344" y1="278" x2="678" y2="698" gradientUnits="userSpaceOnUse">
      <stop stop-color="#FFFFFF" />
      <stop offset="1" stop-color="#FFF1E4" />
    </linearGradient>
  </defs>
  <rect width="1024" height="1024" rx="232" fill="url(#bg-wedding-dress-expert-shaning-svg)" />
  <rect width="1024" height="1024" rx="232" fill="url(#glow-wedding-dress-expert-shaning-svg)" />
  <circle cx="770" cy="214" r="178" fill="rgba(255, 255, 255, 0.1)" />
  <circle cx="246" cy="824" r="154" fill="rgba(244, 214, 148, 0.16)" />
  <rect x="96" y="96" width="832" height="832" rx="196" fill="url(#sheen-wedding-dress-expert-shaning-svg)" stroke="rgba(255, 255, 255, 0.16)" stroke-width="2" />
  <circle cx="512" cy="438" r="224" fill="rgba(255, 255, 255, 0.14)" stroke="rgba(255, 255, 255, 0.18)" stroke-width="2" />
  <path d="M154 766C220 702 314 662 408 662H616C738 662 834 742 870 862" stroke="rgba(255, 255, 255, 0.13)" stroke-width="28" stroke-linecap="round" />
  <rect x="650" y="676" width="206" height="206" rx="76" fill="rgba(255, 255, 255, 0.16)" stroke="rgba(255, 255, 255, 0.18)" stroke-width="2" />
  <circle cx="820" cy="164" r="32" fill="rgba(244, 214, 148, 0.35)" />
  <circle cx="206" cy="200" r="18" fill="rgba(255, 255, 255, 0.22)" />
  <path d="M512 278C544 278 570 292 586 318L640 656C598 684 558 698 512 698C466 698 426 684 384 656L438 318C454 292 480 278 512 278Z" fill="url(#dress-wedding-dress-expert-shaning-svg)" stroke="rgba(255,255,255,0.86)" stroke-width="10" stroke-linejoin="round" />
  <path d="M438 318C470 350 554 350 586 318" stroke="#C98AA0" stroke-width="12" stroke-linecap="round" />
  <path d="M470 332L430 640" stroke="#E5C98E" stroke-width="7" stroke-linecap="round" opacity="0.8" />
  <path d="M554 332L594 640" stroke="#E5C98E" stroke-width="7" stroke-linecap="round" opacity="0.8" />
  <path d="M398 604C454 634 570 634 626 604" stroke="#C98AA0" stroke-width="9" stroke-linecap="round" opacity="0.82" />
  <path d="M512 278V236" stroke="#FFFFFF" stroke-width="14" stroke-linecap="round" />
  <path d="M458 244C480 222 544 222 566 244" stroke="#FFFFFF" stroke-width="14" stroke-linecap="round" />
  <path d="M706 754H816" stroke="#E5C98E" stroke-width="14" stroke-linecap="round" />
  <path d="M720 790H802" stroke="#E5C98E" stroke-width="14" stroke-linecap="round" />
  <path d="M734 826H788" stroke="#E5C98E" stroke-width="14" stroke-linecap="round" />
  <path d="M702 724C722 704 800 704 820 724" stroke="#FFFFFF" stroke-width="12" stroke-linecap="round" />
  <path d="M716 724V846" stroke="#FFFFFF" stroke-width="8" stroke-linecap="round" opacity="0.9" />
  <path d="M806 724V846" stroke="#FFFFFF" stroke-width="8" stroke-linecap="round" opacity="0.9" />
</svg>
