<?xml version="1.0" encoding="UTF-8"?>
<svg xmlns="http://www.w3.org/2000/svg" width="1024" height="1024" viewBox="0 0 1024 1024" fill="none">
  <defs>
    <linearGradient id="bg-wedding-planner-lixu-svg" x1="96" y1="64" x2="944" y2="976" gradientUnits="userSpaceOnUse">
      <stop offset="0" stop-color="#C98AA0" />
      <stop offset="1" stop-color="#FCEAE2" />
    </linearGradient>
    <radialGradient id="glow-wedding-planner-lixu-svg" cx="0" cy="0" r="1" gradientUnits="userSpaceOnUse" gradientTransform="translate(760 212) rotate(126) scale(512)">
      <stop stop-color="rgba(164, 195, 162, 0.5)" />
      <stop offset="1" stop-color="rgba(164, 195, 162, 0)" />
    </radialGradient>
    <linearGradient id="sheen-wedding-planner-lixu-svg" x1="180" y1="100" x2="840" y2="920" gradientUnits="userSpaceOnUse">
      <stop stop-color="rgba(255,255,255,0.34)" />
      <stop offset="0.45" stop-color="rgba(255,255,255,0.08)" />
      <stop offset="1" stop-color="rgba(255,255,255,0.02)" />
    </linearGradient>
  </defs>
  <rect width="1024" height="1024" rx="232" fill="url(#bg-wedding-planner-lixu-svg)" />
  <rect width="1024" height="1024" rx="232" fill="url(#glow-wedding-planner-lixu-svg)" />
  <circle cx="770" cy="214" r="178" fill="rgba(255, 255, 255, 0.08)" />
  <circle cx="256" cy="826" r="154" fill="rgba(164, 195, 162, 0.12)" />
  <rect x="96" y="96" width="832" height="832" rx="196" fill="url(#sheen-wedding-planner-lixu-svg)" stroke="rgba(255, 255, 255, 0.12)" stroke-width="2" />
  <circle cx="512" cy="438" r="224" fill="rgba(255, 255, 255, 0.12)" stroke="rgba(255, 255, 255, 0.14)" stroke-width="2" />
  <path d="M154 766C220 702 314 662 408 662H616C738 662 834 742 870 862" stroke="rgba(255, 255, 255, 0.12)" stroke-width="28" stroke-linecap="round" />
  <rect x="650" y="676" width="206" height="206" rx="76" fill="rgba(255, 255, 255, 0.14)" stroke="rgba(255, 255, 255, 0.16)" stroke-width="2" />
  <circle cx="820" cy="164" r="32" fill="rgba(164, 195, 162, 0.32)" />
  <circle cx="206" cy="200" r="18" fill="rgba(255, 255, 255, 0.18)" />
  <g transform="translate(364.00 290.00) scale(12.3333)" fill="none" stroke="#FFFFFF" stroke-width="2.2" stroke-linecap="round" stroke-linejoin="round" vector-effect="non-scaling-stroke" opacity="1"><path d="M12 11.22C11 9.997 10 9 10 8a2 2 0 0 1 4 0c0 1-.998 2.002-2.01 3.22" key="1rnhq3" /><path d="m12 18 2.57-3.5" key="116vt7" /><path d="M6.243 9.016a7 7 0 0 1 11.507-.009" key="10dq0b" /><path d="M9.35 14.53 12 11.22" key="tdsyp2" /><path d="M9.35 14.53C7.728 12.246 6 10.221 6 7a6 5 0 0 1 12 0c-.005 3.22-1.778 5.235-3.43 7.5l3.557 4.527a1 1 0 0 1-.203 1.43l-1.894 1.36a1 1 0 0 1-1.384-.215L12 18l-2.679 3.593a1 1 0 0 1-1.39.213l-1.865-1.353a1 1 0 0 1-.203-1.422z" key="nmifey" /></g>
  <g transform="translate(695.00 720.00) scale(4.8333)" fill="none" stroke="#A4C3A2" stroke-width="2.2" stroke-linecap="round" stroke-linejoin="round" vector-effect="non-scaling-stroke" opacity="0.98"><path d="M12 5a3 3 0 1 1 3 3m-3-3a3 3 0 1 0-3 3m3-3v1M9 8a3 3 0 1 0 3 3M9 8h1m5 0a3 3 0 1 1-3 3m3-3h-1m-2 3v-1" key="3pnvol" /><circle cx="12" cy="8" r="2" key="1822b1" /><path d="M12 10v12" key="6ubwww" /><path d="M12 22c4.2 0 7-1.667 7-5-4.2 0-7 1.667-7 5Z" key="9hd38g" /><path d="M12 22c-4.2 0-7-1.667-7-5 4.2 0 7 1.667 7 5Z" key="ufn41s" /></g>
</svg>