<?xml version="1.0" encoding="UTF-8"?>
<svg xmlns="http://www.w3.org/2000/svg" width="1024" height="1024" viewBox="0 0 1024 1024" fill="none">
  <defs>
    <linearGradient id="bg-x-twitter-mentor-svg" x1="96" y1="64" x2="944" y2="976" gradientUnits="userSpaceOnUse">
      <stop offset="0" stop-color="#101828" />
      <stop offset="1" stop-color="#335C81" />
    </linearGradient>
    <radialGradient id="glow-x-twitter-mentor-svg" cx="0" cy="0" r="1" gradientUnits="userSpaceOnUse" gradientTransform="translate(760 212) rotate(126) scale(512)">
      <stop stop-color="rgba(96, 165, 250, 0.5)" />
      <stop offset="1" stop-color="rgba(96, 165, 250, 0)" />
    </radialGradient>
    <linearGradient id="sheen-x-twitter-mentor-svg" x1="180" y1="100" x2="840" y2="920" gradientUnits="userSpaceOnUse">
      <stop stop-color="rgba(255,255,255,0.34)" />
      <stop offset="0.45" stop-color="rgba(255,255,255,0.08)" />
      <stop offset="1" stop-color="rgba(255,255,255,0.02)" />
    </linearGradient>
  </defs>
  <rect width="1024" height="1024" rx="232" fill="url(#bg-x-twitter-mentor-svg)" />
  <rect width="1024" height="1024" rx="232" fill="url(#glow-x-twitter-mentor-svg)" />
  <circle cx="770" cy="214" r="178" fill="rgba(255, 255, 255, 0.08)" />
  <circle cx="256" cy="826" r="154" fill="rgba(96, 165, 250, 0.12)" />
  <rect x="96" y="96" width="832" height="832" rx="196" fill="url(#sheen-x-twitter-mentor-svg)" stroke="rgba(255, 255, 255, 0.12)" stroke-width="2" />
  <circle cx="512" cy="438" r="224" fill="rgba(255, 255, 255, 0.12)" stroke="rgba(255, 255, 255, 0.14)" stroke-width="2" />
  <path d="M154 766C220 702 314 662 408 662H616C738 662 834 742 870 862" stroke="rgba(255, 255, 255, 0.12)" stroke-width="28" stroke-linecap="round" />
  <rect x="650" y="676" width="206" height="206" rx="76" fill="rgba(255, 255, 255, 0.14)" stroke="rgba(255, 255, 255, 0.16)" stroke-width="2" />
  <circle cx="820" cy="164" r="32" fill="rgba(96, 165, 250, 0.32)" />
  <circle cx="206" cy="200" r="18" fill="rgba(255, 255, 255, 0.18)" />
  <g transform="translate(364.00 290.00) scale(12.3333)" fill="none" stroke="#FFFFFF" stroke-width="2.2" stroke-linecap="round" stroke-linejoin="round" vector-effect="non-scaling-stroke" opacity="1"><path d="m3 11 18-5v12L3 14v-3z" key="n962bs" /><path d="M11.6 16.8a3 3 0 1 1-5.8-1.6" key="1yl0tm" /></g>
  <g transform="translate(695.00 720.00) scale(4.8333)" fill="none" stroke="#60A5FA" stroke-width="2.2" stroke-linecap="round" stroke-linejoin="round" vector-effect="non-scaling-stroke" opacity="0.98"><path d="M13 17V9" key="1fwyjl" /><path d="M18 17V5" key="sfb6ij" /><path d="M3 3v16a2 2 0 0 0 2 2h16" key="c24i48" /><path d="M8 17v-3" key="17ska0" /></g>
</svg>