<?xml version="1.0" encoding="UTF-8"?>
<svg xmlns="http://www.w3.org/2000/svg" width="1024" height="1024" viewBox="0 0 1024 1024" fill="none">
  <defs>
    <linearGradient id="bg-xu-zhe-career-growth-svg" x1="96" y1="64" x2="944" y2="976" gradientUnits="userSpaceOnUse">
      <stop offset="0" stop-color="#5A4630" />
      <stop offset="1" stop-color="#E3BA72" />
    </linearGradient>
    <radialGradient id="glow-xu-zhe-career-growth-svg" cx="0" cy="0" r="1" gradientUnits="userSpaceOnUse" gradientTransform="translate(760 212) rotate(126) scale(512)">
      <stop stop-color="rgba(255, 245, 225, 0.54)" />
      <stop offset="1" stop-color="rgba(255, 245, 225, 0)" />
    </radialGradient>
    <linearGradient id="sheen-xu-zhe-career-growth-svg" x1="180" y1="100" x2="840" y2="920" gradientUnits="userSpaceOnUse">
      <stop stop-color="rgba(255,255,255,0.34)" />
      <stop offset="0.45" stop-color="rgba(255,255,255,0.08)" />
      <stop offset="1" stop-color="rgba(255,255,255,0.02)" />
    </linearGradient>
  </defs>
  <rect width="1024" height="1024" rx="232" fill="url(#bg-xu-zhe-career-growth-svg)" />
  <rect width="1024" height="1024" rx="232" fill="url(#glow-xu-zhe-career-growth-svg)" />
  <circle cx="770" cy="214" r="178" fill="rgba(255, 255, 255, 0.08)" />
  <circle cx="256" cy="826" r="154" fill="rgba(255, 245, 225, 0.14)" />
  <rect x="96" y="96" width="832" height="832" rx="196" fill="url(#sheen-xu-zhe-career-growth-svg)" stroke="rgba(255, 255, 255, 0.12)" stroke-width="2" />
  <circle cx="512" cy="438" r="224" fill="rgba(255, 255, 255, 0.12)" stroke="rgba(255, 255, 255, 0.14)" stroke-width="2" />
  <path d="M154 766C220 702 314 662 408 662H616C738 662 834 742 870 862" stroke="rgba(255, 255, 255, 0.12)" stroke-width="28" stroke-linecap="round" />
  <rect x="650" y="676" width="206" height="206" rx="76" fill="rgba(255, 255, 255, 0.14)" stroke="rgba(255, 255, 255, 0.16)" stroke-width="2" />
  <circle cx="820" cy="164" r="32" fill="rgba(255, 245, 225, 0.32)" />
  <circle cx="206" cy="200" r="18" fill="rgba(255, 255, 255, 0.18)" />
  <g transform="translate(360.00 286.00) scale(12.65)" fill="none" stroke="#FFFFFF" stroke-width="2.2" stroke-linecap="round" stroke-linejoin="round" vector-effect="non-scaling-stroke" opacity="1">
    <path d="M5 19 19 5" />
    <path d="M7 8h6V2" />
    <path d="M12 17h7v5" />
    <path d="M5 12v7h7" />
  </g>
  <g transform="translate(699.00 719.00) scale(4.78)" fill="none" stroke="#FFF5E1" stroke-width="2.2" stroke-linecap="round" stroke-linejoin="round" vector-effect="non-scaling-stroke" opacity="0.98">
    <path d="M4 19h16" />
    <path d="M7 15V9" />
    <path d="M12 15V5" />
    <path d="M17 15v-3" />
    <path d="M7 9 12 5l5 7" />
  </g>
</svg>
